Coordinates
version=1
nRows=73
nColumns=8
inDegrees=no

Units are S.I. units (second, meters, Newtons, ...)
Angles are in radians.

endheader
time	ra_sh_e_f	ra_sh_ad_ab	ra_sh_ext_int	elbow_flexion	ra_wr_e_f	ra_wr_s_p	ra_wr_ad_ab
      0.00000000	     -0.95120400	      0.11615200	      0.14363000	      0.66440800	     -0.18222600	     -0.12868600	     -0.56278700
      0.00208333	     -0.95120900	      0.11592900	      0.14374600	      0.66398800	     -0.18194800	     -0.12856500	     -0.56183900
      0.00416667	     -0.95121500	      0.11592400	      0.14423500	      0.66384600	     -0.18235900	     -0.12878600	     -0.56379300
      0.00625000	     -0.95123000	      0.11540100	      0.14338100	      0.66332700	     -0.18192900	     -0.12833200	     -0.56215700
      0.00833333	     -0.95115500	      0.11541300	      0.14447800	      0.66318400	     -0.18211500	     -0.12894400	     -0.56260800
      0.01041667	     -0.95119000	      0.11518200	      0.14445900	      0.66266400	     -0.18149800	     -0.12886000	     -0.56062000
      0.01250000	     -0.95123700	      0.11490300	      0.14421100	      0.66240900	     -0.18161300	     -0.12856400	     -0.56126900
      0.01458333	     -0.95117900	      0.11508700	      0.14519900	      0.66240700	     -0.18176400	     -0.12884900	     -0.56159500
      0.01666667	     -0.95131000	      0.11477100	      0.14464200	      0.66193300	     -0.18161200	     -0.12858000	     -0.56053000
      0.01875000	     -0.95102500	      0.11443500	      0.14475800	      0.66209000	     -0.18163000	     -0.12871200	     -0.56027700
      0.02083333	     -0.95107000	      0.11458800	      0.14539900	      0.66209900	     -0.18209200	     -0.12867000	     -0.56286500
      0.02291667	     -0.95103500	      0.11426400	      0.14554400	      0.66155800	     -0.18114200	     -0.12871400	     -0.55965600
      0.02500000	     -0.95082900	      0.11401900	      0.14571000	      0.66179800	     -0.18145900	     -0.12898200	     -0.56088000
      0.02708333	     -0.95082700	      0.11385100	      0.14562200	      0.66163600	     -0.18116900	     -0.12865000	     -0.55986400
      0.02916667	     -0.95084400	      0.11366700	      0.14576400	      0.66131000	     -0.18085000	     -0.12850200	     -0.56028900
      0.03125000	     -0.95084600	      0.11380300	      0.14672200	      0.66131300	     -0.18082200	     -0.12891600	     -0.55988000
      0.03333333	     -0.95069700	      0.11332500	      0.14618000	      0.66132400	     -0.18066900	     -0.12892600	     -0.55921100
      0.03541667	     -0.95056400	      0.11324100	      0.14682700	      0.66131900	     -0.18027100	     -0.12907700	     -0.55967900
      0.03750000	     -0.95053800	      0.11333600	      0.14762600	      0.66133500	     -0.18029200	     -0.12941600	     -0.56088800
      0.03958333	     -0.95052900	      0.11290300	      0.14722400	      0.66098100	     -0.17953500	     -0.12943700	     -0.55775300
      0.04166667	     -0.95034500	      0.11289700	      0.14767200	      0.66128500	     -0.17976000	     -0.12928000	     -0.56039700
      0.04375000	     -0.95038800	      0.11273400	      0.14790300	      0.66099500	     -0.17908300	     -0.12921800	     -0.55868400
      0.04583333	     -0.95035400	      0.11253000	      0.14825300	      0.66095900	     -0.17900100	     -0.12925700	     -0.56065100
      0.04791667	     -0.95019800	      0.11255500	      0.14877700	      0.66107100	     -0.17853100	     -0.12944200	     -0.55871000
      0.05000000	     -0.95029200	      0.11227000	      0.14876000	      0.66070600	     -0.17817300	     -0.12954100	     -0.55840300
      0.05208333	     -0.95018200	      0.11221500	      0.14949400	      0.66072700	     -0.17780200	     -0.12956800	     -0.55935900
      0.05416667	     -0.95015100	      0.11217400	      0.14993000	      0.66072100	     -0.17763700	     -0.12983100	     -0.55952300
      0.05625000	     -0.95013600	      0.11190000	      0.14979800	      0.66062400	     -0.17727400	     -0.12950400	     -0.55956900
      0.05833333	     -0.95002800	      0.11189000	      0.15045200	      0.66073900	     -0.17725400	     -0.12962600	     -0.55954800
      0.06041667	     -0.95009700	      0.11169500	      0.15069600	      0.66045200	     -0.17657400	     -0.12967300	     -0.55846200
      0.06250000	     -0.95008100	      0.11153000	      0.15089100	      0.66041900	     -0.17644600	     -0.12945100	     -0.55902400
      0.06458333	     -0.95011000	      0.11181600	      0.15208500	      0.66041500	     -0.17634800	     -0.12959400	     -0.55940500
      0.06666667	     -0.95016000	      0.11142300	      0.15187800	      0.66023100	     -0.17633800	     -0.12966400	     -0.55949500
      0.06875000	     -0.95003900	      0.11132000	      0.15235400	      0.66014600	     -0.17567500	     -0.12952100	     -0.55887700
      0.07083333	     -0.95008800	      0.11137200	      0.15261800	      0.66026300	     -0.17577100	     -0.12928400	     -0.56041500
      0.07291667	     -0.95016300	      0.11128800	      0.15334200	      0.65996700	     -0.17515500	     -0.12913900	     -0.56044900
      0.07500000	     -0.95006100	      0.11108900	      0.15359300	      0.66003200	     -0.17538400	     -0.12950800	     -0.55947100
      0.07708333	     -0.95014400	      0.11120300	      0.15433000	      0.65988000	     -0.17488500	     -0.12899500	     -0.56017200
      0.07916667	     -0.95016300	      0.11096200	      0.15434300	      0.65979900	     -0.17478800	     -0.12876000	     -0.56074800
      0.08125000	     -0.95017700	      0.11105300	      0.15500400	      0.65984000	     -0.17452200	     -0.12889000	     -0.55960900
      0.08333333	     -0.95030400	      0.11083800	      0.15535600	      0.65938100	     -0.17400600	     -0.12877100	     -0.55884000
      0.08541667	     -0.95024400	      0.11078400	      0.15580900	      0.65942700	     -0.17403300	     -0.12869700	     -0.55916700
      0.08750000	     -0.95028300	      0.11076700	      0.15599100	      0.65950700	     -0.17398500	     -0.12847800	     -0.55947400
      0.08958333	     -0.95039800	      0.11065300	      0.15651900	      0.65905000	     -0.17348000	     -0.12843100	     -0.55821800
      0.09166667	     -0.95035200	      0.11044200	      0.15666800	      0.65911200	     -0.17342300	     -0.12846200	     -0.55786000
      0.09375000	     -0.95044300	      0.11045200	      0.15704100	      0.65894500	     -0.17338200	     -0.12808400	     -0.55904700
      0.09583333	     -0.95056300	      0.11023000	      0.15703900	      0.65865900	     -0.17316100	     -0.12794400	     -0.55790800
      0.09791667	     -0.95056200	      0.11026900	      0.15778700	      0.65870600	     -0.17311800	     -0.12813100	     -0.55679300
      0.10000000	     -0.95064200	      0.10996900	      0.15770200	      0.65843800	     -0.17276900	     -0.12801200	     -0.55619900
      0.10208333	     -0.95065700	      0.10992500	      0.15808200	      0.65836500	     -0.17291500	     -0.12785200	     -0.55648600
      0.10416667	     -0.95066800	      0.10982900	      0.15845900	      0.65834700	     -0.17279400	     -0.12802500	     -0.55608300
      0.10625000	     -0.95082500	      0.10967700	      0.15853300	      0.65793400	     -0.17245700	     -0.12777400	     -0.55570400
      0.10833333	     -0.95078500	      0.10948800	      0.15870200	      0.65802800	     -0.17268500	     -0.12771700	     -0.55614700
      0.11041667	     -0.95093800	      0.10936400	      0.15875500	      0.65772600	     -0.17254800	     -0.12749700	     -0.55584600
      0.11250000	     -0.95096200	      0.10917100	      0.15877200	      0.65763400	     -0.17253100	     -0.12733900	     -0.55593800
      0.11458333	     -0.95093000	      0.10907100	      0.15886600	      0.65783800	     -0.17283000	     -0.12735300	     -0.55588800
      0.11666667	     -0.95103100	      0.10877600	      0.15860600	      0.65755000	     -0.17265100	     -0.12708900	     -0.55629500
      0.11875000	     -0.95108800	      0.10878900	      0.15909600	      0.65737700	     -0.17271100	     -0.12702900	     -0.55591000
      0.12083333	     -0.95114200	      0.10867500	      0.15905700	      0.65750800	     -0.17300400	     -0.12695300	     -0.55695000
      0.12291667	     -0.95118100	      0.10839900	      0.15888900	      0.65726500	     -0.17281400	     -0.12686500	     -0.55591800
      0.12500000	     -0.95119100	      0.10818900	      0.15874500	      0.65721300	     -0.17272500	     -0.12683900	     -0.55528700
      0.12708333	     -0.95122700	      0.10805900	      0.15861600	      0.65716300	     -0.17282900	     -0.12663100	     -0.55523900
      0.12916667	     -0.95126000	      0.10782100	      0.15856800	      0.65710200	     -0.17295700	     -0.12671400	     -0.55580000
      0.13125000	     -0.95129500	      0.10777000	      0.15858300	      0.65712800	     -0.17293600	     -0.12669300	     -0.55494900
      0.13333333	     -0.95136200	      0.10750100	      0.15842900	      0.65692000	     -0.17278500	     -0.12666600	     -0.55474300
      0.13541667	     -0.95136700	      0.10731600	      0.15832400	      0.65685200	     -0.17286200	     -0.12664400	     -0.55432900
      0.13750000	     -0.95140200	      0.10722400	      0.15829600	      0.65691800	     -0.17286900	     -0.12672100	     -0.55465600
      0.13958333	     -0.95146300	      0.10698800	      0.15807800	      0.65668400	     -0.17266000	     -0.12665000	     -0.55424600
      0.14166667	     -0.95143000	      0.10684400	      0.15824900	      0.65668600	     -0.17258100	     -0.12686900	     -0.55392400
      0.14375000	     -0.95146900	      0.10670300	      0.15802900	      0.65657300	     -0.17236100	     -0.12683200	     -0.55314800
      0.14583333	     -0.95151800	      0.10648500	      0.15796200	      0.65643400	     -0.17229900	     -0.12687800	     -0.55356200
      0.14791667	     -0.95160300	      0.10656200	      0.15831300	      0.65647000	     -0.17232700	     -0.12700300	     -0.55381300
      0.15000000	     -0.95166400	      0.10623400	      0.15794000	      0.65625100	     -0.17197000	     -0.12703100	     -0.55281100
